<svg width="128" height="128" viewBox="0 0 128 128" fill="none" xmlns="http://www.w3.org/2000/svg">
<g clip-path="url(#clip0_362_30)">
<rect width="128" height="128" fill="white"/>
<path d="M86.7874 94.5778C83.2057 94.5778 80.6188 93.6296 79.0269 91.7333C77.5146 89.837 76.5595 87.4667 76.1615 84.6222H75.5645C74.2114 88.4148 71.9828 91.2593 68.8786 93.1556C65.7743 95.0518 62.0732 96 57.775 96C51.2482 96 46.1542 94.3407 42.4928 91.0222C38.911 87.7037 37.1201 83.2 37.1201 77.5111C37.1201 71.7432 39.2294 67.3185 43.4479 64.237C47.7461 61.1556 54.3922 59.6148 63.3865 59.6148H75.5645V53.5704C75.5645 49.2247 74.3706 45.9062 71.9828 43.6148C69.5949 41.3235 65.9335 40.1778 60.9986 40.1778C57.2577 40.1778 54.1137 41.0074 51.5666 42.6667C49.0992 44.3259 47.0297 46.5383 45.3582 49.3037L39.6274 43.9704C41.2989 40.6518 43.9653 37.8469 47.6267 35.5556C51.288 33.1852 55.9046 32 61.4762 32C68.9581 32 74.7686 33.8173 78.9075 37.4518C83.0465 41.0864 85.1159 46.1432 85.1159 52.6222V86.2815H92.1601V94.5778H86.7874ZM59.3271 87.9407C61.715 87.9407 63.9039 87.6642 65.8937 87.1111C67.8836 86.558 69.5949 85.7679 71.0276 84.7407C72.4603 83.7136 73.5747 82.5284 74.3706 81.1852C75.1666 79.842 75.5645 78.3802 75.5645 76.8V66.7259H62.9089C57.4169 66.7259 53.3973 67.516 50.8503 69.0963C48.3828 70.6765 47.1491 72.9679 47.1491 75.9704V78.4593C47.1491 81.4617 48.2236 83.7926 50.3727 85.4518C52.6014 87.1111 55.5862 87.9407 59.3271 87.9407Z" fill="black"/>
</g>
<defs>
<clipPath id="clip0_362_30">
<rect width="128" height="128" fill="white"/>
</clipPath>
</defs>
</svg>
